<?xml version="1.0" encoding="UTF-8" standalone="no"?>
<svg
   width="4000.196"
   height="837.70972"
   viewBox="0 0 4000.1961 837.70972"
   fill="none"
   version="1.1"
   id="svg45"
   sodipodi:docname="cerro_morado.svg"
   xml:space="preserve"
   inkscape:version="1.4-beta2 (9aaf4f34, 2024-07-30)"
   xmlns:inkscape="http://www.inkscape.org/namespaces/inkscape"
   xmlns:sodipodi="http://sodipodi.sourceforge.net/DTD/sodipodi-0.dtd"
   xmlns="http://www.w3.org/2000/svg"
   xmlns:svg="http://www.w3.org/2000/svg"><sodipodi:namedview
     id="namedview45"
     pagecolor="#505050"
     bordercolor="#eeeeee"
     borderopacity="1"
     inkscape:showpageshadow="0"
     inkscape:pageopacity="0"
     inkscape:pagecheckerboard="0"
     inkscape:deskcolor="#d1d1d1"
     inkscape:zoom="1.746471"
     inkscape:cx="2405.4222"
     inkscape:cy="224.73892"
     inkscape:window-width="1560"
     inkscape:window-height="1010"
     inkscape:window-x="232"
     inkscape:window-y="25"
     inkscape:window-maximized="0"
     inkscape:current-layer="svg45"
     showguides="true"
     showgrid="false"><inkscape:grid
       id="grid1"
       units="px"
       originx="0"
       originy="0"
       spacingx="1"
       spacingy="1"
       empcolor="#0099e5"
       empopacity="0.30196078"
       color="#0099e5"
       opacity="0.14901961"
       empspacing="5"
       enabled="true"
       visible="false" /></sodipodi:namedview><defs
     id="defs45"><clipPath
       id="clip0_2530_256"><rect
         width="1692"
         height="2394"
         fill="#ffffff"
         id="rect45"
         x="0"
         y="0" /></clipPath><clipPath
       id="clip0_2530_256-6"><rect
         width="1692"
         height="2394"
         fill="#ffffff"
         id="rect45-0"
         x="0"
         y="0" /></clipPath><clipPath
       id="clip0_2530_256-8"><rect
         width="1692"
         height="2394"
         fill="#ffffff"
         id="rect45-6"
         x="0"
         y="0" /></clipPath><clipPath
       clipPathUnits="userSpaceOnUse"
       id="clipPath2"><rect
         style="font-variation-settings:'wght' 400;fill:#ffffff;stroke-width:0.976259;stroke-linecap:square;paint-order:stroke fill markers"
         id="rect2"
         width="636.71576"
         height="437.43069"
         x="-105.62109"
         y="52.690552" /></clipPath></defs><path
     id="path12-8"
     style="fill:#b486e0;fill-opacity:1;fill-rule:nonzero;stroke:none;stroke-width:0.787116"
     d="m 1800.3283,34.723801 c -1.4212,-0.3238 -2.934,-0.2851 -4.4903,0.029 -10.3758,2.0929 -22.6894,16.3769 -22.6894,16.3769 C 1697.2677,125.5266 1533.8283,208.7528 1533.8283,208.7528 1407.98,236.7636 1294.5845,146.009 1187.0978,90.221501 1135.7334,58.697401 1001.4728,130.5712 1001.4728,130.5712 972.2877,153.2685 804.4285,95.437001 804.4285,95.437001 753.063,89.132401 546.39,357.5477 546.39,357.5477 541.8734,361.4879 0,842.981 0,842.981 c 0,0 397.6295,-7.5629 391.7653,-5.4411 h 429.9594 1797.0782 l 1073.34,-0.46094 C 3681.6321,828.63449 3614.4612,693.91997 3400.6139,548.17503 3277.6025,464.33819 3135.271,361.8372 2985.1559,348.97954 2872.93,339.36716 2701.8982,282.56041 2701.8982,282.56041 2640.0212,256.08001 2484.129,231.4442 2484.129,231.4442 c -16.0642,6.1976 -78.1132,-27.5393 -115.582,-49.1719 -53.3224,-0.87432 -8.9202,29.3112 -137.7598,-41.6113 -26.8485,-26.4804 -80.5527,34.043 -80.5527,34.043 -47.866,18.9139 -121.414,-63.0469 -121.4141,-63.0469 -30.052,-23.165999 -24.5704,-59.287899 -70.0488,-37.830099 -28.0315,44.455399 -40.6298,135.775899 -118.3687,75.467999 -34.9345,-25.7006 -31.0571,-99.424999 -31.0571,-99.424999 -1.3143,-9.9306 -4.7537,-14.1749 -9.0175,-15.1465 z"
     sodipodi:nodetypes="sccccccccccccsscccccccccss" /></svg>
