<?xml version="1.0" encoding="UTF-8" standalone="no"?>
<svg
   viewBox="0 0 288.14969 58.720001"
   height="58.720001"
   width="288.14969"
   xml:space="preserve"
   id="svg2"
   version="1.1"
   sodipodi:docname="cloud_bottom_b.svg"
   inkscape:version="1.4-beta2 (9aaf4f34, 2024-07-30)"
   xmlns:inkscape="http://www.inkscape.org/namespaces/inkscape"
   xmlns:sodipodi="http://sodipodi.sourceforge.net/DTD/sodipodi-0.dtd"
   xmlns="http://www.w3.org/2000/svg"
   xmlns:svg="http://www.w3.org/2000/svg"
   xmlns:rdf="http://www.w3.org/1999/02/22-rdf-syntax-ns#"
   xmlns:cc="http://creativecommons.org/ns#"
   xmlns:dc="http://purl.org/dc/elements/1.1/"><sodipodi:namedview
     id="namedview1"
     pagecolor="#505050"
     bordercolor="#eeeeee"
     borderopacity="1"
     inkscape:showpageshadow="0"
     inkscape:pageopacity="0"
     inkscape:pagecheckerboard="0"
     inkscape:deskcolor="#d1d1d1"
     inkscape:zoom="1.2766416"
     inkscape:cx="90.863403"
     inkscape:cy="-65.797637"
     inkscape:window-width="1616"
     inkscape:window-height="1009"
     inkscape:window-x="0"
     inkscape:window-y="25"
     inkscape:window-maximized="0"
     inkscape:current-layer="svg2" /><metadata
     id="metadata8"><rdf:RDF><cc:Work
         rdf:about=""><dc:format>image/svg+xml</dc:format><dc:type
           rdf:resource="http://purl.org/dc/dcmitype/StillImage" /></cc:Work></rdf:RDF></metadata><defs
     id="defs6" /><path
     style="fill:#e2beff;fill-opacity:1"
     d="m 0.05586616,57.84 c -0.0956,-0.484 -0.06544,-1.456 0.06703,-2.16 C 1.5478122,48.10755 12.693979,44.69035 19.978697,49.59261 l 1.638178,1.10241 1.468129,-1.12065 c 1.707821,-1.30361 3.007044,-1.89377 4.857273,-2.20636 1.116363,-0.18861 1.327408,-0.34383 1.327408,-0.97628 0,-1.4731 1.023921,-5.13171 2.055397,-7.34421 2.184299,-4.6853 5.846822,-8.39024 10.584603,-10.70717 6.788123,-3.31962 15.237176,-2.94781 21.708644,0.95531 l 2.182827,1.31653 1.75422,-1.93848 c 2.451106,-2.70856 5.569618,-4.24486 9.022284,-4.44473 l 2.48847,-0.14406 0.54946,-1.54704 c 1.000365,-2.81659 3.32053,-4.83934 6.96064,-6.06839 1.7028,-0.57493 2.5999,-0.67278 5.25346,-0.57301 2.75912,0.10375 3.48866,0.25596 5.29516,1.10477 2.73724,1.28613 4.24588,2.64743 5.28284,4.76688 0.82822,1.69282 1.09866,4.09003 0.62854,5.57128 -0.1725,0.54348 -0.0786,0.57262 1.02175,0.31716 1.89935,-0.44094 5.85378,-0.34436 7.91841,0.19341 2.51919,0.65617 5.37988,2.22024 7.07625,3.86894 l 1.38987,1.3508 0.64942,-1.73574 c 1.63872,-4.37986 3.62227,-7.57548 6.68182,-10.76486 4.00634,-4.17635 8.33357,-6.27789 13.49593,-6.55438 5.10399,-0.27336 9.30488,1.16553 13.66842,4.68171 l 1.91338,1.54183 1.66947,-2.52415 C 161.22841,13.62058 164.86477,11.36 168.74219,11.36 h 1.86565 l 0.37682,-1.68 c 0.80183,-3.57479 3.52211,-6.98635 6.95653,-8.72433 C 179.68076,0.07536 180.09463,0 183.18968,0 c 3.06881,0 3.5264,0.0815 5.28,0.94034 5.49831,2.69286 8.59589,9.3623 6.9797,15.02807 -0.13996,0.49064 -0.058,0.56274 0.42337,0.37247 0.32831,-0.12976 1.4713,-0.37481 2.53998,-0.54456 5.57289,-0.88521 11.83759,2.35497 15.1196,7.82005 2.51466,4.1873 3.5069,9.817 2.53855,14.40301 l -0.46018,2.17938 1.46949,1.00408 c 2.49037,1.70164 4.54142,3.37939 7.79248,6.37423 l 3.12299,2.87686 1.6083,-1.446 c 0.88457,-0.7953 2.29188,-1.75494 3.12736,-2.13253 1.41293,-0.63857 1.5461,-0.8021 1.90632,-2.34096 1.08048,-4.61581 4.59982,-9.33088 8.33641,-11.16877 1.94906,-0.95868 2.37923,-1.04567 5.17077,-1.04567 2.8438,0 3.17461,0.0704 5.0098,1.0659 1.08072,0.58624 2.34967,1.46746 2.81988,1.95826 l 0.85494,0.89235 2.04635,-1.37222 c 3.67592,-2.46498 8.44261,-2.79276 12.38547,-0.8517 3.34573,1.64709 6.27613,5.37635 6.84219,8.70741 0.1573,0.92569 0.42071,1.22695 1.51828,1.73645 2.05969,0.95613 5.08409,4.23646 6.41062,6.95309 1.09143,2.23518 2.11734,5.49978 2.11734,6.73769 0,0.54951 -5.84601,0.57277 -143.96,0.57277 H 0.22969016 Z"
     id="path2"
     sodipodi:nodetypes="ssscsssssscsscssssssssscsssscsscssssssssscsscssssssscssssssscs" /></svg>
