<?xml version="1.0" encoding="UTF-8" standalone="no"?>
<svg
   viewBox="0 0 117.38021 22.987417"
   height="22.987417"
   width="117.38021"
   xml:space="preserve"
   id="svg2"
   version="1.1"
   sodipodi:docname="cloud_b.svg"
   inkscape:version="1.4-beta2 (9aaf4f34, 2024-07-30)"
   xmlns:inkscape="http://www.inkscape.org/namespaces/inkscape"
   xmlns:sodipodi="http://sodipodi.sourceforge.net/DTD/sodipodi-0.dtd"
   xmlns="http://www.w3.org/2000/svg"
   xmlns:svg="http://www.w3.org/2000/svg"
   xmlns:rdf="http://www.w3.org/1999/02/22-rdf-syntax-ns#"
   xmlns:cc="http://creativecommons.org/ns#"
   xmlns:dc="http://purl.org/dc/elements/1.1/"><sodipodi:namedview
     id="namedview1"
     pagecolor="#505050"
     bordercolor="#eeeeee"
     borderopacity="1"
     inkscape:showpageshadow="0"
     inkscape:pageopacity="0"
     inkscape:pagecheckerboard="0"
     inkscape:deskcolor="#d1d1d1"
     inkscape:zoom="3.3060669"
     inkscape:cx="64.124534"
     inkscape:cy="15.123711"
     inkscape:window-width="1616"
     inkscape:window-height="1009"
     inkscape:window-x="0"
     inkscape:window-y="25"
     inkscape:window-maximized="0"
     inkscape:current-layer="svg2" /><metadata
     id="metadata8"><rdf:RDF><cc:Work
         rdf:about=""><dc:format>image/svg+xml</dc:format><dc:type
           rdf:resource="http://purl.org/dc/dcmitype/StillImage" /></cc:Work></rdf:RDF></metadata><defs
     id="defs6" /><path
     style="fill:#e2beff;fill-opacity:1"
     d="m 117.21927,22.481287 c 0.89909,-2.34297 -2.05313,-4.57705 -6.75064,-5.10851 -1.29717,-0.14676 -2.7779,-0.0447 -4.60367,0.31736 l -2.69145,0.5337 -1.78022,-0.78771 c -1.560908,-0.69068 -1.827488,-0.94551 -2.163948,-2.06852 -0.86975,-2.90295 -4.60097,-4.77821 -10.62715,-5.34105 l -2.09133,-0.1953297 -0.54835,-1.54391 c -1.82402,-5.13564 -11.38447,-8.82539997 -21.30608,-8.22285997 -6.67143,0.40516 -12.4067,2.37517997 -15.44746,5.30607997 l -1.5905,1.53304 -3.10248,0.16208 c -4.80479,0.251 -9.09968,2.26895 -9.79478,4.6020597 -0.26464,0.88826 -0.49743,1.03034 -2.45988,1.50133 -2.06199,0.49488 -2.23482,0.49078 -3.5477,-0.0842 -3.46552,-1.5176 -9.61345,-1.68473 -13.73322,-0.37333 -2.16901,0.69044 -4.86412,2.66986 -5.2376701,3.84681 -0.1484,0.46757 -0.65507,0.63427 -2.47195,0.8133 -4.99691,0.49238 -8.03593999,2.67853 -7.10303999,5.10962 0.17613,0.459 5.63022999,0.50617 58.52576009,0.50617 52.895528,0 58.349628,-0.0472 58.525758,-0.50617 z"
     id="path2"
     sodipodi:nodetypes="csscssscssscssscssssscc" /></svg>
