<?xml version="1.0" encoding="UTF-8" standalone="no"?>
<svg
   viewBox="0 0 135.18929 30.695786"
   height="30.695786"
   width="135.18929"
   xml:space="preserve"
   id="svg2"
   version="1.1"
   sodipodi:docname="cloud_a.svg"
   inkscape:version="1.4-beta2 (9aaf4f34, 2024-07-30)"
   xmlns:inkscape="http://www.inkscape.org/namespaces/inkscape"
   xmlns:sodipodi="http://sodipodi.sourceforge.net/DTD/sodipodi-0.dtd"
   xmlns="http://www.w3.org/2000/svg"
   xmlns:svg="http://www.w3.org/2000/svg"
   xmlns:rdf="http://www.w3.org/1999/02/22-rdf-syntax-ns#"
   xmlns:cc="http://creativecommons.org/ns#"
   xmlns:dc="http://purl.org/dc/elements/1.1/"><sodipodi:namedview
     id="namedview1"
     pagecolor="#505050"
     bordercolor="#eeeeee"
     borderopacity="1"
     inkscape:showpageshadow="0"
     inkscape:pageopacity="0"
     inkscape:pagecheckerboard="0"
     inkscape:deskcolor="#d1d1d1"
     inkscape:zoom="1.2766416"
     inkscape:cx="122.19561"
     inkscape:cy="133.16188"
     inkscape:window-width="1616"
     inkscape:window-height="1009"
     inkscape:window-x="0"
     inkscape:window-y="25"
     inkscape:window-maximized="0"
     inkscape:current-layer="svg2" /><metadata
     id="metadata8"><rdf:RDF><cc:Work
         rdf:about=""><dc:format>image/svg+xml</dc:format><dc:type
           rdf:resource="http://purl.org/dc/dcmitype/StillImage" /></cc:Work></rdf:RDF></metadata><defs
     id="defs6" /><path
     style="fill:#e2beff;fill-opacity:1"
     d="m 0.19906977,29.828275 c -1.45675397,-3.83155 5.34754503,-7.60591 11.73179423,-6.50764 1.21763,0.20946 2.645873,0.56255 3.173873,0.78463 0.882965,0.37138 1.14983,0.30406 3.32564,-0.83888 2.167293,-1.13847 2.373821,-1.33383 2.463214,-2.33006 0.05367,-0.59807 0.313773,-1.50548 0.578014,-2.01647 1.532222,-2.96299 7.099748,-5.50407 12.059465,-5.50407 h 2.13187 l 0.214562,-1.3418 c 0.316418,-1.97877 1.694587,-4.2693102 3.636749,-6.0443302 2.070968,-1.89275 6.615051,-4.183352 10.150486,-5.11670501 3.298364,-0.870766 10.905764,-1.200277 14.48219,-0.62729 6.743698,1.08042301 12.80365,4.11990501 15.24887,7.64836501 l 0.84884,1.22488 2.56555,0.0488 c 3.22275,0.0612 6.06179,0.76493 8.48763,2.1037402 1.99929,1.10341 3.88313,3.20541 4.17338,4.6567 0.14985,0.74924 0.46486,0.94283 2.51624,1.54635 l 2.344943,0.68989 1.75905,-0.80531 c 5.03469,-2.30496 12.1166,-2.2859 17.04558,0.0459 2.19451,1.03817 4.47477,3.20837 4.83606,4.60265 0.25477,0.98317 0.29549,1.00137 2.53759,1.1341 5.37486,0.31818 9.22015,3.16941 8.61619,6.38879 l -0.21111,1.12527 H 67.722317 0.52889577 Z"
     id="path2"
     sodipodi:nodetypes="ssssssscsssssccssscssssscccs" /></svg>
