<?xml version="1.0" encoding="UTF-8"?>
<svg id="Layer_2" data-name="Layer 2" xmlns="http://www.w3.org/2000/svg" viewBox="0 0 601 970">
  <defs>
    <style>
      .cls-1 {
        fill: #fff;
      }

      .cls-2 {
        fill: none;
      }

      .cls-3 {
        fill: #5f2d82;
      }
    </style>
  </defs>
  <g id="Layer_7" data-name="Layer 7">
    <g>
      <rect class="cls-2" x="250.13" y="458.63" width="171.82" height=".09" transform="translate(-123.59 793.4) rotate(-89.84)"/>
      <polygon class="cls-2" points="336.09 909.59 336.09 631.59 129.09 631.78 129.09 632.19 336 632 336 910 411 870 411 869.63 336.09 909.59"/>
      <polygon class="cls-2" points="43.09 39 43 39 43 790 129 836 129 835.54 43.09 789.59 43.09 39"/>
      <polygon class="cls-2" points="190.09 39.07 190 39 192 488 278 488 278 487.59 192.09 487.59 190.09 39.07"/>
      <polygon class="cls-2" points="476.91 222.41 376.09 308.59 276.09 222.41 276.09 222.91 376 309 476.83 222.83 477 835 558 792 558 791.63 477.09 834.59 476.91 222.41"/>
      <polygon class="cls-1" points="336.09 631.59 336.09 909.59 411 869.63 411 373 336.09 372.77 336.09 544.59 336 544.59 336 545 129 545 129 39 43.09 39 43.09 789.59 129 835.54 129 632.19 129.09 632.19 129.09 631.78 336.09 631.59"/>
      <path class="cls-3" d="M600,0H0l1,803.77,298,166.23,302-166.23L600,0ZM336,910v-278l-206.91.19h-.09v203.81l-86-46V39h86v506h207v-172.23h.09s74.91.23,74.91.23v497l-75,40ZM558.09,791.59l-.09.05v.37l-81,43-.17-612.17-100.83,86.17-99.91-86.09,2,264.68h-.09v.42s-86,0-86,0l-2-449,.09.07v-.49s184,154.72,184,154.72l184-154.72v753Z"/>
      <polygon class="cls-1" points="190.09 38.59 190.09 39.07 192.09 487.59 278 487.59 278.09 487.59 276.09 222.91 276.09 222.41 376.09 308.59 476.91 222.41 477.09 834.59 558 791.63 558.09 791.59 558.09 38.59 374.09 193.31 190.09 38.59"/>
    </g>
  </g>
</svg>