<?xml version="1.0" encoding="UTF-8" standalone="no"?>
<!DOCTYPE svg PUBLIC "-//W3C//DTD SVG 1.1//EN" "http://www.w3.org/Graphics/SVG/1.1/DTD/svg11.dtd">
<svg width="100%" height="100%" viewBox="0 0 3091 4940" version="1.1" xmlns="http://www.w3.org/2000/svg" xmlns:xlink="http://www.w3.org/1999/xlink" xml:space="preserve" xmlns:serif="http://www.serif.com/" style="fill-rule:evenodd;clip-rule:evenodd;stroke-linejoin:round;stroke-miterlimit:2;">
    <g transform="matrix(1,0,0,1,-2987.94,-491.442)">
        <g id="final" transform="matrix(2.66667,0,0,2.66667,0,0)">
            <g transform="matrix(1.93162,0,0,1.89091,1120.48,2018.47)">
                <path d="M0,-970L600,-970L599.974,-137.725L300.278,9.652L0.013,-137.748L0,-970Z" style="fill:url(#_Linear1);fill-rule:nonzero;"/>
            </g>
            <g transform="matrix(0.357808,0,0,0.372727,66.5803,31.7828)">
                <path d="M3597.8,4414.04L3597.8,4610.66L3178.02,4414.03L3178.04,4414.03L3178.04,661.47L3597.82,661.47L3597.82,3114.66L4356.59,3114.66L4356.59,696.945L4776.22,1068.96L5165.41,1386.43L5593.17,1036.76L5973.01,696.945L5973.01,1074.81L5973.1,1074.81L5973.1,4414.07L5973.07,4414.07L5553.32,4610.66L5553.32,1617.33L5164.84,1917.31L4776.37,1617.3L4776.37,4963.91L4776.32,4963.91L4566.48,5061.5L4356.63,4963.91L4356.59,4963.91L4356.59,3544.46L3597.82,3544.46L3597.82,4414.04L3597.8,4414.04Z" style="fill:url(#_Radial2);"/>
            </g>
        </g>
    </g>
    <defs>
        <linearGradient id="_Linear1" x1="0" y1="0" x2="1" y2="0" gradientUnits="userSpaceOnUse" gradientTransform="matrix(219.279,-982.295,961.589,224.001,299.396,10.1298)"><stop offset="0" style="stop-color:rgb(95,45,130);stop-opacity:1"/><stop offset="0.61" style="stop-color:rgb(84,37,117);stop-opacity:1"/><stop offset="0.82" style="stop-color:rgb(58,19,86);stop-opacity:1"/><stop offset="1" style="stop-color:rgb(31,0,53);stop-opacity:1"/></linearGradient>
        <radialGradient id="_Radial2" cx="0" cy="0" r="1" gradientUnits="userSpaceOnUse" gradientTransform="matrix(-1793.51,-2686.83,2798.87,-1721.72,4575.56,2861.48)"><stop offset="0" style="stop-color:rgb(247,236,197);stop-opacity:1"/><stop offset="0.46" style="stop-color:rgb(230,209,161);stop-opacity:1"/><stop offset="1" style="stop-color:rgb(187,141,68);stop-opacity:1"/></radialGradient>
    </defs>
</svg>
