<?xml version="1.0" encoding="UTF-8" standalone="no"?>
<!-- Created with Inkscape (http://www.inkscape.org/) -->

<svg
   width="309.01706mm"
   height="143.69051mm"
   viewBox="0 0 309.01706 143.69051"
   version="1.1"
   id="svg1"
   xml:space="preserve"
   inkscape:version="1.4-beta2 (9aaf4f34, 2024-07-30)"
   sodipodi:docname="tec-acm-purple-gold.svg"
   inkscape:export-filename="tec-acm-purple-gold.webp"
   inkscape:export-xdpi="100"
   inkscape:export-ydpi="100"
   xmlns:inkscape="http://www.inkscape.org/namespaces/inkscape"
   xmlns:sodipodi="http://sodipodi.sourceforge.net/DTD/sodipodi-0.dtd"
   xmlns:xlink="http://www.w3.org/1999/xlink"
   xmlns="http://www.w3.org/2000/svg"
   xmlns:svg="http://www.w3.org/2000/svg"><sodipodi:namedview
     id="namedview1"
     pagecolor="#505050"
     bordercolor="#eeeeee"
     borderopacity="1"
     inkscape:showpageshadow="0"
     inkscape:pageopacity="0"
     inkscape:pagecheckerboard="0"
     inkscape:deskcolor="#d1d1d1"
     inkscape:document-units="mm"
     inkscape:zoom="0.33056579"
     inkscape:cx="341.83816"
     inkscape:cy="418.97863"
     inkscape:window-width="1680"
     inkscape:window-height="838"
     inkscape:window-x="108"
     inkscape:window-y="129"
     inkscape:window-maximized="0"
     inkscape:current-layer="layer1" /><defs
     id="defs1"><linearGradient
       id="linearGradient1"
       inkscape:collect="always"><stop
         style="stop-color:#1f0035;stop-opacity:1;"
         offset="0"
         id="stop2" /><stop
         style="stop-color:#3a1356;stop-opacity:1;"
         offset="0.16368717"
         id="stop3" /><stop
         style="stop-color:#4c206c;stop-opacity:1;"
         offset="0.49972066"
         id="stop4" /><stop
         style="stop-color:#542575;stop-opacity:1;"
         offset="0.67723465"
         id="stop5" /><stop
         style="stop-color:#5f2d82;stop-opacity:1;"
         offset="1"
         id="stop1" /></linearGradient><linearGradient
       id="linearGradient10"
       inkscape:collect="always"><stop
         style="stop-color:#bb8d44;stop-opacity:1;"
         offset="0"
         id="stop11" /><stop
         style="stop-color:#e6d1a1;stop-opacity:1;"
         offset="0.5"
         id="stop7" /><stop
         style="stop-color:#f7ecc5;stop-opacity:1;"
         offset="1"
         id="stop12" /></linearGradient><linearGradient
       id="linearGradient9"
       inkscape:collect="always"><stop
         style="stop-color:#f7ecc5;stop-opacity:1;"
         offset="0"
         id="stop10" /><stop
         style="stop-color:#e6d1a1;stop-opacity:1;"
         offset="0.48770949"
         id="stop6" /><stop
         style="stop-color:#bb8d44;stop-opacity:1;"
         offset="1"
         id="stop9" /></linearGradient><linearGradient
       inkscape:collect="always"
       xlink:href="#linearGradient10"
       id="linearGradient12"
       x1="183.59853"
       y1="173.7104"
       x2="258.55231"
       y2="173.7104"
       gradientUnits="userSpaceOnUse" /><linearGradient
       inkscape:collect="always"
       xlink:href="#linearGradient1"
       id="linearGradient2"
       x1="101.3018"
       y1="90.354897"
       x2="101.3018"
       y2="256.99777"
       gradientUnits="userSpaceOnUse" /><linearGradient
       inkscape:collect="always"
       xlink:href="#linearGradient9"
       id="linearGradient7"
       x1="326.99744"
       y1="180.31291"
       x2="199.81551"
       y2="180.31291"
       gradientUnits="userSpaceOnUse"
       spreadMethod="reflect" /></defs><g
     inkscape:label="Layer 1"
     inkscape:groupmode="layer"
     id="layer1"
     transform="translate(-17.980391,-101.86516)"><path
       style="fill:url(#linearGradient2);fill-opacity:1"
       d="m 163.31362,207.89154 c -4.69494,-0.41382 -9.21158,-1.70737 -13.25008,-3.79477 -8.79072,-4.5437 -14.88416,-13.06588 -16.76102,-23.44165 -0.58134,-3.21384 -0.62658,-9.7839 -0.0906,-13.15289 0.9021,-5.66981 2.68431,-10.38885 5.59877,-14.82472 1.51532,-2.30635 5.70126,-6.51509 7.96883,-8.01224 6.23586,-4.11719 13.14246,-5.8189 21.52495,-5.3035 4.84881,0.29812 8.35968,1.17069 13.14543,3.26707 3.47925,1.52407 3.32706,1.17825 1.95375,4.4395 -1.03398,2.4554 -2.33094,6.21863 -3.11541,9.03958 l -0.27705,0.99625 -1.16416,-0.74749 c -1.70138,-1.09241 -4.76531,-2.60909 -6.3874,-3.16183 -3.4374,-1.17132 -8.30751,-1.25642 -11.60427,-0.20278 -6.70387,2.14255 -11.49339,7.46067 -13.59477,15.09518 -0.62379,2.26625 -0.67062,8.36405 -0.0849,11.04859 2.0246,9.27877 8.29734,15.0044 17.38106,15.86508 2.61568,0.24784 6.0366,-0.003 8.44545,-0.61896 1.67232,-0.4277 5.12702,-1.94525 6.25202,-2.74633 0.86149,-0.61343 1.02729,-0.55375 1.29122,0.46479 0.51829,2.0002 2.21298,6.75221 3.18665,8.9356 0.56927,1.27655 0.96507,2.38859 0.87955,2.47119 -0.39728,0.38371 -3.75323,1.90609 -5.65882,2.56705 -5.20818,1.80647 -9.76047,2.33544 -15.63928,1.81728 z M 33.643725,180.08834 v -27.19917 h -7.831667 -7.831667 v -6.45583 -6.45583 H 40.628726 63.27706 v 6.45583 6.45583 h -8.149167 -8.149167 v 27.19917 27.19917 h -6.6675 -6.667501 z m 42.333336,-6.45583 v -33.655 h 22.965834 22.965835 v 6.45452 6.45451 l -16.24542,0.0542 -16.245415,0.0542 -0.05577,7.03791 -0.05577,7.03792 h 14.502025 14.50202 v 6.45436 6.45437 l -14.44625,0.0544 -14.446254,0.0544 -0.05573,7.14375 -0.05573,7.14375 h 16.936154 16.93615 v 6.45583 6.45584 H 99.577895 75.977061 Z"
       id="path1"
       sodipodi:nodetypes="csscsssssscsssscscssssscccccccccccccccccccccccccccccccccccccccccccc" /><path
       d="m 247.68199,245.24832 c -16.4713,-1.79731 -31.44354,-8.98698 -43.13876,-20.71523 -11.70492,-11.73797 -18.60651,-26.05158 -20.67475,-42.87856 -0.35994,-2.92838 -0.35994,-12.94662 0,-15.875 1.75425,-14.27242 6.87779,-26.47441 15.7747,-37.56837 2.24634,-2.80107 7.71365,-8.23515 10.62213,-10.55757 4.19593,-3.35046 10.02386,-7.00517 14.42431,-9.04553 8.95285,-4.15116 18.18101,-6.39531 27.49179,-6.68559 3.47,-0.10818 4.11987,-0.0779 4.69289,0.21839 1.4897,0.77035 2.0622,2.45647 1.3674,4.02719 -0.67379,1.5232 -1.23157,1.74827 -4.75591,1.91905 -7.16366,0.34713 -12.7542,1.3499 -18.81524,3.37487 -24.30591,8.12053 -41.65497,29.62612 -44.50868,55.17218 -0.41581,3.72227 -0.41328,10.51793 0.005,14.17371 0.91193,7.965 2.89068,14.69311 6.44304,21.9075 7.73463,15.70805 21.42126,27.695 37.89095,33.18544 5.84429,1.94829 10.21936,2.76891 17.05984,3.19984 5.02757,0.31673 5.61743,0.46049 6.4003,1.55993 0.68054,0.95572 0.77318,1.97684 0.28042,3.09081 -0.71787,1.62287 -1.27863,1.82901 -4.90222,1.80214 -1.68805,-0.0125 -4.23391,-0.14986 -5.65749,-0.3052 z"
       style="display:inline;fill:url(#linearGradient12);fill-opacity:1"
       id="path1-3"
       sodipodi:nodetypes="cssssssscsssscsssssscc" /><path
       d="m 213.12081,205.1601 c -0.45655,-0.12611 -0.5381,-0.28474 -0.59421,-1.15589 -0.065,-1.00915 -0.0648,-1.00954 0.42334,-0.69506 1.23819,0.79779 3.22666,0.57795 3.09596,-0.34228 -0.0477,-0.33549 -0.44189,-0.67465 -1.33624,-1.14954 -1.68973,-0.89723 -2.22568,-1.54311 -2.21712,-2.67192 0.0121,-1.59247 1.01238,-2.32587 3.17234,-2.32587 1.71184,0 2.11259,0.24187 2.11259,1.27499 0,0.62004 -0.059,0.713 -0.37041,0.58345 -0.80889,-0.33653 -2.27195,-0.35074 -2.69875,-0.0262 -0.60071,0.45677 -0.238,0.95266 1.20828,1.65193 1.49237,0.72156 2.07255,1.44716 2.07255,2.59205 0,1.0629 -0.45352,1.76349 -1.3967,2.15757 -0.7319,0.30581 -2.54878,0.36169 -3.47163,0.10678 z m 14.40053,-0.18238 c -1.32993,-0.6709 -1.58497,-1.43184 -1.66703,-4.97384 l -0.0723,-3.12208 h 0.97191 0.97192 v 2.96333 c 0,2.68111 0.0403,3.00365 0.42333,3.38667 0.23519,0.23518 0.70556,0.42333 1.05833,0.42333 0.35278,0 0.82315,-0.18815 1.05834,-0.42333 0.38301,-0.38302 0.42333,-0.70556 0.42333,-3.38667 v -2.96333 h 0.9525 0.9525 l -3.3e-4,3.01625 c -3.7e-4,3.41739 -0.21145,4.13605 -1.45972,4.96995 -0.89285,0.59646 -2.54821,0.64674 -3.61275,0.10972 z m 42.00864,0.0707 c -0.78882,-0.3521 -1.69991,-1.30773 -1.99737,-2.09502 -0.34084,-0.90211 -0.2745,-3.04612 0.11997,-3.87741 0.77207,-1.62703 2.82769,-2.55503 4.94656,-2.23311 l 0.9525,0.14471 0.0637,0.98436 0.0636,0.98436 -0.87738,-0.30229 c -1.21737,-0.41941 -2.17312,-0.19524 -2.9526,0.69255 -1.10925,1.26336 -0.76394,3.51801 0.62703,4.09417 0.63522,0.26312 2.05008,0.20922 2.82459,-0.1076 0.34113,-0.13954 0.37654,-0.0546 0.3175,0.76193 -0.0559,0.77345 -0.15025,0.94212 -0.59561,1.06507 -0.89812,0.24794 -2.82481,0.18631 -3.4925,-0.11172 z m -48.78917,-3.18143 v -3.26977 l -1.11125,-0.064 -1.11125,-0.064 -0.0657,-0.79375 -0.0657,-0.79375 h 3.29361 3.29361 v 0.84667 0.84666 h -1.16417 -1.16416 v 3.28084 3.28083 h -0.9525 -0.9525 z m 13.54667,-0.85773 v -4.1275 l 1.85208,10e-4 c 2.26605,0.001 3.23126,0.25218 4.18106,1.08611 1.13835,0.99949 1.5168,3.16079 0.83795,4.78551 -0.76564,1.83243 -1.86093,2.3822 -4.746,2.3822 h -2.12509 z m 4.49992,1.84193 c 0.49432,-0.49432 0.66171,-0.88059 0.74152,-1.71117 0.0966,-1.00552 0.0563,-1.1195 -0.64302,-1.81884 -0.65862,-0.65862 -0.87265,-0.74609 -1.82559,-0.74609 h -1.0795 v 2.39889 c 0,1.31939 0.0714,2.4715 0.15875,2.56025 0.0873,0.0887 0.57515,0.11501 1.08408,0.0584 0.66046,-0.0735 1.10808,-0.28572 1.56376,-0.74141 z m 3.96674,-1.84193 v -4.1275 h 2.32834 2.32833 v 0.84667 0.84666 h -1.49445 -1.49444 l 0.0657,0.79375 0.0657,0.79375 1.32292,0.063 1.32291,0.063 v 0.72063 0.72063 l -1.32291,0.063 -1.32292,0.063 v 0.84666 0.84667 l 1.53458,0.0622 1.53459,0.0622 v 0.73156 0.73156 h -2.43417 -2.43417 z m 6.13834,0 v -4.1275 h 0.92157 0.92158 l 1.82427,2.80458 1.82428,2.80459 0.006,-2.80459 0.006,-2.80458 h 0.84667 0.84666 v 4.1275 4.1275 l -0.89958,-0.005 -0.89958,-0.005 -1.8511,-2.79978 -1.8511,-2.79979 -9.8e-4,2.80459 -9.9e-4,2.80458 h -0.84667 -0.84666 z m 10.58333,0.85773 v -3.26977 l -1.11125,-0.064 -1.11125,-0.064 -0.0657,-0.79375 -0.0657,-0.79375 h 3.18778 3.18778 v 0.84667 0.84666 h -1.16417 -1.16417 v 3.28084 3.28083 h -0.84666 -0.84667 z m 15.45167,-0.8699 v -4.13967 l 0.89958,0.0651 0.89958,0.0651 0.062,1.64916 0.062,1.64916 1.63135,-0.0617 1.63136,-0.0617 0.0618,-1.64041 0.0618,-1.64042 h 0.83776 0.83777 v 4.1275 4.1275 h -0.83777 -0.83776 l -0.0618,-1.64042 -0.0618,-1.64041 -1.64042,-0.0618 -1.64041,-0.0618 v 1.70223 1.70224 h -0.9525 -0.9525 z m 8.4462,2.49925 c 0.33214,-0.90223 1.01362,-2.76399 1.5144,-4.13724 l 0.91051,-2.49682 1.069,0.0627 1.06899,0.0627 1.42114,3.91584 c 0.78163,2.1537 1.42646,3.99249 1.43295,4.08618 0.006,0.0937 -0.44063,0.14131 -0.99361,0.10583 -0.96848,-0.0621 -1.01262,-0.0937 -1.2015,-0.85826 l -0.19608,-0.79375 h -1.51666 -1.51667 l -0.25366,0.84666 c -0.25141,0.83913 -0.26298,0.84667 -1.29819,0.84667 h -1.04451 z m 4.06318,-2.8575 c -0.20871,-0.61119 -0.42599,-1.25412 -0.48283,-1.42875 -0.0575,-0.1765 -0.27356,0.1995 -0.48662,0.84667 -0.21079,0.64029 -0.4272,1.28323 -0.48091,1.42875 -0.0691,0.18722 0.18413,0.26458 0.8661,0.26458 h 0.96374 z m 4.21228,0.37042 v -4.1275 h 1.9118 c 3.05143,0 4.01487,0.63937 4.01487,2.66438 0,1.76619 -1.19717,2.83895 -3.1682,2.83895 h -0.85347 v 1.37584 1.37583 h -0.9525 -0.9525 z m 3.55124,-0.43534 c 0.70424,-0.49326 0.65964,-1.7257 -0.0725,-2.00407 -0.29863,-0.11353 -0.77488,-0.20642 -1.05834,-0.20642 -0.4888,0 -0.51539,0.0655 -0.51539,1.27 0,1.24739 0.0105,1.27 0.58791,1.27 0.32334,0 0.79959,-0.14828 1.05833,-0.32951 z m 5.1271,1.29307 v -3.26977 l -1.11125,-0.064 -1.11125,-0.064 -0.066,-0.79933 -0.066,-0.79934 3.24103,0.0585 3.24103,0.0585 0.0657,0.79375 0.0657,0.79375 h -1.17695 -1.17694 v 3.28084 3.28083 h -0.9525 -0.9525 z m 5.08,-0.85773 v -4.1275 h 2.32833 2.32834 v 0.84667 0.84666 h -1.37584 -1.37583 v 0.84667 0.84667 h 1.27 1.27 v 0.74083 0.74083 h -1.27 -1.27 v 0.9525 0.9525 h 1.48167 1.48166 v 0.74084 0.74083 h -2.43416 -2.43417 z m 6.13833,0 v -4.1275 h 1.9118 c 1.18803,0 2.18888,0.11577 2.64368,0.3058 1.4977,0.62578 1.78808,2.726 0.52397,3.78969 l -0.62116,0.52267 1.01532,1.55383 c 0.55842,0.85462 1.08493,1.6729 1.17001,1.81843 0.1151,0.19685 -0.11325,0.26458 -0.892,0.26458 h -1.04671 l -0.88024,-1.48167 c -0.48413,-0.81491 -0.96345,-1.48166 -1.06514,-1.48166 -0.1017,0 -0.33557,-0.0578 -0.51972,-0.12848 -0.28722,-0.11022 -0.33481,0.10038 -0.33481,1.48166 v 1.61015 h -0.9525 -0.9525 z m 3.72363,-1.05833 c 0.32119,-0.4902 0.32119,-0.56814 0,-1.05834 -0.25979,-0.3965 -0.53123,-0.52916 -1.08267,-0.52916 h -0.73596 v 1.05833 1.05833 h 0.73596 c 0.55144,0 0.82288,-0.13266 1.08267,-0.52916 z M 208.5461,191.60351 c -2.53875,-0.40296 -5.14659,-1.77258 -6.39599,-3.35913 -2.59996,-3.30153 -3.08871,-8.57209 -1.16153,-12.5256 1.18124,-2.42324 4.0776,-4.55117 7.47679,-5.49314 0.87001,-0.24108 4.05723,-0.77731 7.08273,-1.1916 3.0255,-0.41429 5.53833,-0.79068 5.58407,-0.83642 0.0457,-0.0457 0.0201,-0.58816 -0.057,-1.20538 -0.27507,-2.20154 -1.62646,-3.7183 -3.81838,-4.28562 -3.58326,-0.92745 -9.34778,0.42869 -13.5634,3.19087 l -0.52088,0.34129 v -4.0227 -4.0227 l 0.92747,-0.43596 c 3.67037,-1.72528 10.19406,-2.79203 14.43588,-2.36055 5.45418,0.5548 8.75938,2.6036 10.68771,6.62501 1.5094,3.14773 1.51887,3.24609 1.62008,16.8153 l 0.0904,12.11791 h -4.88493 -4.88493 l -0.007,-2.48708 -0.007,-2.48708 -0.42481,0.52916 c -2.23255,2.78103 -3.73599,3.93676 -6.05151,4.65196 -1.53691,0.4747 -4.55044,0.69181 -6.12764,0.44146 z m 8.01673,-7.76823 c 1.45481,-0.46792 3.12058,-2.06849 3.87084,-3.71932 0.50947,-1.12104 0.61906,-1.67865 0.69273,-3.52496 l 0.0875,-2.19325 -1.3478,0.15174 c -5.75777,0.64821 -8.10587,1.22833 -9.25767,2.28719 -0.75547,0.6945 -1.28834,2.02533 -1.28834,3.21758 0,3.41897 3.19031,5.08445 7.24273,3.78102 z m 35.61709,7.71888 c -6.86337,-0.78218 -12.37331,-5.48569 -14.21547,-12.1349 -1.16774,-4.21491 -0.56942,-10.79116 1.32508,-14.56425 2.76835,-5.51345 8.00353,-8.81769 15.00254,-9.46901 3.75055,-0.34902 8.5819,0.19409 10.4861,1.17879 l 0.62431,0.32284 v 4.33373 c 0,2.38355 -0.0462,4.33373 -0.10266,4.33373 -0.0565,0 -0.55652,-0.27785 -1.11125,-0.61746 -1.99695,-1.22252 -3.48309,-1.59139 -6.40609,-1.59004 -2.25572,0.001 -2.82495,0.0724 -3.86064,0.48372 -3.80135,1.5098 -5.91599,4.60252 -6.21791,9.09384 -0.36963,5.49864 2.4756,9.6321 7.32688,10.64428 1.61126,0.33617 4.87506,0.11692 6.44194,-0.43274 0.69086,-0.24236 1.85767,-0.77131 2.59292,-1.17545 l 1.33681,-0.7348 v 4.24097 4.24098 l -1.11125,0.48887 c -2.98126,1.31154 -7.78595,1.84984 -12.11131,1.3569 z m 20.41922,-18.0654 v -17.46633 l 5.02709,0.0567 5.02708,0.0567 0.0595,2.60357 0.0595,2.60357 0.81424,-1.01607 c 2.28539,-2.85191 5.0704,-4.43528 8.66755,-4.9278 4.77059,-0.65318 9.01343,1.32166 11.03632,5.13689 0.29084,0.54853 0.57659,0.99299 0.635,0.98767 0.0584,-0.005 0.57375,-0.63041 1.1452,-1.3891 1.62254,-2.15419 4.28282,-3.85225 7.11016,-4.53841 1.4053,-0.34105 5.2137,-0.34541 6.64309,-0.008 3.67643,0.86885 6.37363,3.68924 7.4057,7.74394 0.65709,2.58149 0.76788,4.92469 0.76788,16.23987 v 11.38263 h -5.08 -5.08 l -0.004,-9.78958 c -0.004,-11.30682 -0.13874,-13.23432 -1.054,-15.10443 -1.16805,-2.38659 -3.6766,-3.39882 -6.40058,-2.58269 -1.90843,0.57178 -3.90326,3.23339 -4.39397,5.86268 -0.12396,0.66419 -0.21278,5.41508 -0.21278,11.38091 v 10.24077 l -5.02709,-0.0567 -5.02708,-0.0567 -0.11349,-11.43 c -0.12802,-12.89286 -0.12772,-12.89031 -1.71241,-14.60949 -1.32816,-1.44088 -3.60752,-1.96974 -5.73818,-1.33138 -1.16308,0.34846 -2.78728,1.87273 -3.40773,3.19804 -0.93117,1.98904 -0.98736,2.77494 -0.98736,13.81158 v 10.46708 h -5.08 -5.08 z"
       style="display:inline;fill:url(#linearGradient7);fill-opacity:1;fill-rule:nonzero"
       id="path1-0" /></g></svg>
