<svg clip-rule="evenodd" fill-rule="evenodd" image-rendering="optimizeQuality" shape-rendering="geometricPrecision" text-rendering="geometricPrecision" version="1.1" viewBox="0 0 512 512" xmlns="http://www.w3.org/2000/svg" xmlns:xlink="http://www.w3.org/1999/xlink">
 <defs>
  <clipPath id="clipPath6">
   <use xlink:href="#g5"/>
  </clipPath>
 </defs>
 <g clip-path="url(#clipPath6)"></g>
 <g data-name="图层 2">
  <g data-name="Discord Logos">
   <path d="m105 0c-57.923 0.155-104.84 47.072-105 105l0.0019531 302c0.154 57.923 47.072 104.84 105 105l302-0.00195c57.924-0.154 104.84-47.072 105-105v-302c-0.155-57.924-47.072-104.84-105-105h-302-0.00391zm105.12 132.74c3.165 5.65 6.0808 11.528 8.5918 17.455 12.295-1.83 24.803-2.7754 37.25-2.7754a250.34 250.34 0 0 1 37.246 2.7988 186.88 186.88 0 0 1 8.5703-17.475 269.51 269.51 0 0 1 67.119 20.637c36.813 53.826 55.103 114.53 48.35 184.58a269.51 269.51 0 0 1-82.355 41.299 197.85 197.85 0 0 1-17.631-28.4 175 175 0 0 0 27.822-13.289c-2.302-1.56-4.5787-3.3002-6.8047-5.1172-25.728 12.085-53.837 18.389-82.279 18.389-28.441 0-56.549-6.3037-82.275-18.387-2.2 1.69-4.4767 3.4292-6.8047 5.1172a173.81 173.81 0 0 0 27.771 13.254c-5.048 9.926-10.994 19.463-17.631 28.422a270.62 270.62 0 0 1-82.307-41.311c-5.756-60.401 5.7554-121.67 48.234-184.51a271.73 271.73 0 0 1 67.133-20.682zm-8.2012 102.99c-16.45 0-29.242 14.684-29.242 32.592s13.253 32.465 29.293 32.465c16.348 0 28.984-14.557 29.266-32.465 0.28099-17.908-12.866-32.592-29.316-32.592zm108.11 0c-16.476 0-29.266 14.684-29.266 32.592s13.2 32.465 29.266 32.465c16.347 0 28.961-14.557 29.242-32.465s-12.767-32.592-29.242-32.592z"/>
  </g>
 </g>
</svg>
