<?xml version="1.0" encoding="UTF-8"?>
<svg version="1.1" viewBox="0 0 79 79" xmlns="http://www.w3.org/2000/svg" xmlns:xlink="http://www.w3.org/1999/xlink">viewBox="0 0 132 132"
 <path d="m35.043 0c-8.946 0.01-10.662 0.06953-15.09 0.26953-4.68 0.215-7.2201 0.9943-8.9121 1.6543-2.24 0.872-3.8395 1.9118-5.5195 3.5918s-2.7238 3.2815-3.5938 5.5215c-0.657 1.692-1.4383 4.2321-1.6523 8.9121-0.23 5.06-0.27539 6.5707-0.27539 19.389 0 12.818 0.04539 14.338 0.27539 19.398 0.213 4.68 0.99534 7.2202 1.6523 8.9102 0.872 2.241 1.9138 3.8376 3.5938 5.5176 1.68 1.68 3.2795 2.7198 5.5195 3.5898 1.693 0.657 4.2321 1.4383 8.9121 1.6543 5.06 0.23 6.5795 0.27929 19.396 0.27929 12.816 0 14.336-0.0493 19.396-0.27929 4.68-0.214 7.2221-0.9943 8.9121-1.6543 2.241-0.87 3.8356-1.9098 5.5156-3.5898 1.68-1.679 2.7218-3.2737 3.5918-5.5137 0.657-1.69 1.4384-4.2302 1.6524-8.9102 0.23-5.06 0.28125-6.5806 0.28125-19.391s-0.0512-14.329-0.28125-19.389c-0.213-4.68-0.99535-7.2202-1.6524-8.9102-0.872-2.24-1.9118-3.8395-3.5918-5.5195-1.679-1.68-3.2756-2.7218-5.5156-3.5918-1.692-0.657-4.2321-1.4383-8.9121-1.6523-5.061-0.23-6.5805-0.27539-19.396-0.27539-1.602 0-3.0286-2e-3 -4.3066 0zm29.93 7.9785c3.18-1e-6 5.7598 2.5817 5.7598 5.7617s-2.5798 5.7598-5.7598 5.7598-5.7617-2.5798-5.7617-5.7598c0-3.181 2.5817-5.7598 5.7617-5.7598zm-25.623 6.7324c13.613 0 24.646 11.037 24.646 24.65s-11.033 24.645-24.646 24.645-24.65-11.032-24.65-24.645 11.037-24.65 24.65-24.65zm0 8.6504c-8.837 0-16 7.163-16 16 0 8.836 7.163 16 16 16 8.836 0 16-7.164 16-16 0-8.837-7.164-16-16-16z"/>
</svg>
